<svg width="831" height="550" viewBox="0 0 831 550" fill="none" xmlns="http://www.w3.org/2000/svg">
<path d="M680.048 160.064C680.048 205.74 643.019 242.77 597.343 242.77C551.667 242.77 514.639 205.74 514.639 160.064C514.639 114.388 551.667 77.3589 597.343 77.3589C643.019 77.3589 680.048 114.388 680.048 160.064Z" fill="#E9E2F4"/>
<path d="M734.057 527.139C751.576 513.738 767.029 498.081 778.548 479.28C801.951 441.087 804.691 387.285 774.651 354.059C741.283 317.151 683.967 318.147 634.455 323.061C584.944 327.975 528.572 331.827 492.136 297.945C462.427 270.32 456.091 226.267 453.049 185.812C450.008 145.359 447.428 101.86 422.193 70.0962C388.228 27.3415 319.881 22.1802 273.875 51.5922C227.868 81.0042 203.861 137.416 203.316 192.019C203.084 215.386 204.495 243.48 185.197 256.656C169.816 267.159 148.688 261.999 132.163 253.408C115.636 244.819 100.052 232.976 81.5948 230.488C57.0229 227.176 32.5401 242.077 18.9005 262.784C5.26091 283.488 0.871331 308.981 0.118726 333.764C-2.01669 404.101 24.7702 474.309 71.0505 527.139H734.057Z" fill="#E9E2F4"/>
<path d="M5.28072 526.279H782.047" stroke="#C2A8DA" stroke-width="1.39743" stroke-miterlimit="10"/>
<path d="M597.539 518.117H369.971C361.568 518.117 354.757 524.928 354.757 533.329H597.539V518.117Z" fill="#7A7DC6"/>
<path d="M671.331 416.116H513.813C509.443 416.116 505.493 418.724 503.777 422.743L460.337 524.519C458.556 528.692 461.617 533.329 466.156 533.329H628.861C633.232 533.329 637.181 530.721 638.897 526.702L680.301 429.699C683.048 423.264 678.327 416.116 671.331 416.116Z" fill="#A9A5DA"/>
<path d="M589.771 476.952C587.371 486.726 577.503 494.648 567.729 494.648C557.956 494.648 551.977 486.726 554.377 476.952C556.777 467.179 566.645 459.256 576.419 459.256C586.192 459.256 592.171 467.179 589.771 476.952Z" fill="white"/>
<path d="M354.332 541.086H630.775" stroke="#C2A8DA" stroke-width="1.39743" stroke-miterlimit="10"/>
<path d="M472.385 548.956H618.969" stroke="#C2A8DA" stroke-width="1.39743" stroke-miterlimit="10"/>
<path d="M711.224 178H350.513C334.213 178 321 191.213 321 207.513V360.979C321 377.279 334.213 390.492 350.513 390.492H489.273L514.127 415.345L538.98 390.492H711.224C727.523 390.492 740.737 377.279 740.737 360.979V207.513C740.737 191.213 727.523 178 711.224 178Z" fill="white"/>
<path d="M732.344 168.883H371.633C355.333 168.883 342.12 182.096 342.12 198.396V351.861C342.12 368.161 355.333 381.375 371.633 381.375H510.393L535.247 406.228L560.1 381.375H732.344C748.643 381.375 761.857 368.161 761.857 351.861V198.396C761.857 182.096 748.643 168.883 732.344 168.883Z" stroke="#A389CC" stroke-width="1.39743" stroke-miterlimit="10"/>
<path d="M440.413 230.651C440.413 247.676 426.613 261.475 409.588 261.475C392.565 261.475 378.764 247.676 378.764 230.651C378.764 213.628 392.565 199.827 409.588 199.827C426.613 199.827 440.413 213.628 440.413 230.651Z" fill="#CFCEEC"/>
<path d="M473.833 202.652L479.489 219.618L497.373 219.479L482.987 230.103L488.644 247.068L474.095 236.668L459.708 247.291L465.104 230.24L450.555 219.842L468.437 219.703L473.833 202.652" fill="#F0992E"/>
<path d="M530.792 202.652L536.449 219.618L554.333 219.479L539.947 230.103L545.604 247.068L531.055 236.668L516.668 247.291L522.063 230.24L507.515 219.842L525.397 219.703L530.792 202.652" fill="#F0992E"/>
<path d="M587.752 202.652L593.409 219.618L611.292 219.479L596.905 230.103L602.563 247.068L588.015 236.668L573.628 247.291L579.023 230.24L564.475 219.842L582.357 219.703L587.752 202.652" fill="#F0992E"/>
<path d="M644.712 202.652L650.369 219.618L668.252 219.479L653.867 230.103L659.523 247.068L644.975 236.668L630.588 247.291L635.983 230.24L621.435 219.842L639.317 219.703L644.712 202.652" fill="#DEDFF3"/>
<path d="M701.672 202.652L707.329 219.618L725.212 219.479L710.825 230.103L716.483 247.068L701.935 236.668L687.548 247.291L692.943 230.24L678.395 219.842L696.277 219.703L701.672 202.652" fill="#DEDFF3"/>
<path d="M404.359 275.232H377.132V282.507H404.359V275.232Z" fill="#A389CC"/>
<path d="M411.08 275.232V282.507H451.897V275.232H411.08Z" fill="#A389CC"/>
<path d="M435.853 296.844H377.132V304.119H435.853V296.844Z" fill="#DCCBEA"/>
<path d="M597.172 296.844H459.781V304.119H597.172V296.844Z" fill="#DCCBEA"/>
<path d="M621.099 296.844V304.119H726.844V296.844H621.099Z" fill="#DCCBEA"/>
<path d="M508.408 320H377.132V327.275H508.408V320Z" fill="#DCCBEA"/>
<path d="M661.236 320V327.275H726.844V320H661.236Z" fill="#DCCBEA"/>
<path d="M645.799 320H530.792V327.275H645.799V320Z" fill="#DCCBEA"/>
<path d="M544.685 343.156H377.132V350.431H544.685V343.156Z" fill="#DCCBEA"/>
<path d="M804.847 52.1748H569.404C558.765 52.1748 550.141 60.7988 550.141 71.4375V118.551C550.141 129.188 558.765 137.813 569.404 137.813H804.847C815.485 137.813 824.109 129.188 824.109 118.551V71.4375C824.109 60.7988 815.485 52.1748 804.847 52.1748" fill="white"/>
<path d="M804.847 52.1748H569.404C558.765 52.1748 550.141 60.7988 550.141 71.4375V118.551C550.141 129.188 558.765 137.813 569.404 137.813H804.847C815.485 137.813 824.109 129.188 824.109 118.551V71.4375C824.109 60.7988 815.485 52.1748 804.847 52.1748V52.1748Z" stroke="#A389CC" stroke-width="1.39743" stroke-miterlimit="10"/>
<path d="M640.693 80.4255L644.385 91.5002L656.059 91.4095L646.668 98.3428L650.361 109.416L640.865 102.628L631.475 109.563L634.996 98.4335L625.5 91.6442L637.172 91.5549L640.693 80.4255" fill="#F0992E"/>
<path d="M677.872 80.4255L681.564 91.5002L693.237 91.4095L683.847 98.3428L687.539 109.416L678.043 102.628L668.652 109.563L672.173 98.4335L662.677 91.6442L674.351 91.5549L677.872 80.4255" fill="#F0992E"/>
<path d="M715.051 80.4255L718.743 91.5002L730.416 91.4095L721.025 98.3428L724.719 109.416L715.221 102.628L705.832 109.563L709.353 98.4335L699.856 91.6442L711.529 91.5549L715.051 80.4255" fill="#F0992E"/>
<path d="M752.229 80.4255L755.921 91.5002L767.593 91.4095L758.203 98.3428L761.896 109.416L752.4 102.628L743.011 109.563L746.531 98.4335L737.035 91.6442L748.707 91.5549L752.229 80.4255" fill="#F0992E"/>
<path d="M789.408 80.4255L793.1 91.5002L804.772 91.4095L795.383 98.3428L799.076 109.416L789.58 102.628L780.189 109.563L783.709 98.4335L774.213 91.6442L785.887 91.5549L789.408 80.4255" fill="#DEDFF3"/>
<path d="M609.853 91.1976C609.853 100.686 602.163 108.378 592.675 108.378C583.187 108.378 575.496 100.686 575.496 91.1976C575.496 81.7109 583.187 74.0189 592.675 74.0189C602.163 74.0189 609.853 81.7109 609.853 91.1976Z" fill="#CFCEEC"/>
<path d="M587.152 111.915H571.979V115.97H587.152V111.915Z" fill="#A389CC"/>
<path d="M590.897 111.915V115.97H613.647V111.915H590.897Z" fill="#A389CC"/>
<path d="M199.647 130.519H37.9838C30.6786 130.519 24.7568 136.44 24.7568 143.744V176.094C24.7568 183.399 30.6786 189.322 37.9838 189.322H199.647C206.952 189.322 212.875 183.399 212.875 176.094V143.744C212.875 136.44 206.952 130.519 199.647 130.519Z" fill="white"/>
<path d="M199.647 130.519H37.9838C30.6786 130.519 24.7568 136.44 24.7568 143.744V176.094C24.7568 183.399 30.6786 189.322 37.9838 189.322H199.647C206.952 189.322 212.875 183.399 212.875 176.094V143.744C212.875 136.44 206.952 130.519 199.647 130.519Z" stroke="#A389CC" stroke-width="1.39743" stroke-miterlimit="10"/>
<path d="M86.9338 149.916L89.4688 157.519L97.4838 157.459L91.036 162.219L93.5718 169.823L87.051 165.162L80.6036 169.922L83.0213 162.282L76.501 157.62L84.5156 157.559L86.9338 149.916" fill="#F0992E"/>
<path d="M112.462 149.916L114.997 157.519L123.013 157.459L116.565 162.219L119.099 169.823L112.58 165.162L106.132 169.922L108.549 162.282L102.03 157.62L110.044 157.559L112.462 149.916" fill="#F0992E"/>
<path d="M137.991 149.916L140.525 157.519L148.54 157.459L142.092 162.219L144.628 169.823L138.108 165.162L131.66 169.922L134.077 162.282L127.557 157.62L135.572 157.559L137.991 149.916" fill="#F0992E"/>
<path d="M163.519 149.916L166.055 157.519L174.068 157.459L167.621 162.219L170.156 169.823L163.636 165.162L157.188 169.922L159.607 162.282L153.087 157.62L161.1 157.559L163.519 149.916" fill="#F0992E"/>
<path d="M189.047 149.916L191.583 157.519L199.597 157.459L193.149 162.219L195.685 169.823L189.164 165.162L182.717 169.922L185.135 162.282L178.615 157.62L186.629 157.559L189.047 149.916" fill="#DEDFF3"/>
<path d="M65.7578 157.312C65.7578 163.828 60.477 169.109 53.9625 169.109C47.4478 169.109 42.1666 163.828 42.1666 157.312C42.1666 150.798 47.4478 145.518 53.9625 145.518C60.477 145.518 65.7578 150.798 65.7578 157.312" fill="#CFCEEC"/>
<path d="M50.1697 171.538H39.7516V174.322H50.1697V171.538Z" fill="#A389CC"/>
<path d="M52.7421 171.538V174.322H68.362V171.538H52.7421Z" fill="#A389CC"/>
<path d="M781.973 443.844C781.973 463.669 765.903 479.74 746.077 479.74C726.252 479.74 710.181 463.669 710.181 443.844C710.181 424.019 726.252 407.948 746.077 407.948C765.903 407.948 781.973 424.019 781.973 443.844" fill="#F1469B"/>
<path d="M756.844 430.305C750.877 430.305 746.077 435.141 746.077 441.107C746.077 435.141 741.276 430.305 735.309 430.305C729.345 430.305 724.508 435.141 724.508 441.107C724.508 454.565 746.077 465.846 746.077 465.846C746.077 465.846 767.645 454.565 767.645 441.107C767.645 435.141 762.809 430.305 756.844 430.305" fill="white"/>
<path d="M109.519 299.295C109.519 319.12 93.4473 335.19 73.6224 335.19C53.7973 335.19 37.7265 319.12 37.7265 299.295C37.7265 279.47 53.7973 263.399 73.6224 263.399C93.4473 263.399 109.519 279.47 109.519 299.295" fill="#F1469B"/>
<path d="M84.3896 285.756C78.424 285.756 73.6224 290.592 73.6224 296.557C73.6224 290.592 68.8208 285.756 62.8557 285.756C56.8901 285.756 52.0541 290.592 52.0541 296.557C52.0541 310.016 73.6224 321.295 73.6224 321.295C73.6224 321.295 95.1917 310.016 95.1917 296.557C95.1917 290.592 90.3546 285.756 84.3896 285.756Z" fill="white"/>
<path d="M269.475 47.0002L278.185 73.8108H306.377L283.569 90.3828L292.283 117.193L269.475 100.624L246.667 117.193L255.379 90.3828L232.571 73.8108H260.763L269.475 47.0002Z" fill="#A389CC"/>
<path d="M312.499 111.259L319.151 131.734H340.681L323.263 144.39L329.916 164.866L312.499 152.211L295.08 164.866L301.733 144.39L284.316 131.734H305.845L312.499 111.259Z" fill="#A389CC"/>
<path d="M284.371 173.368L288.239 185.273H300.757L290.631 192.632L294.499 204.537L284.371 197.18L274.243 204.537L278.112 192.632L267.983 185.273H280.503L284.371 173.368" fill="#A389CC"/>
<path d="M830.524 281.461C830.524 307.079 809.756 327.847 784.14 327.847C758.521 327.847 737.753 307.079 737.753 281.461C737.753 255.845 758.521 235.077 784.14 235.077C809.756 235.077 830.524 255.845 830.524 281.461" fill="#A389CC"/>
<path d="M760.6 258.616V274.675L793.14 282.155L760.6 289.634V305.692L820.831 282.155L760.6 258.616Z" fill="white"/>
<path d="M509.589 68.1362C509.603 105.612 479.132 136.11 441.928 136.031C404.141 135.952 377.903 107.051 374.364 76.5629C372.02 56.3722 377.427 38.4148 390.712 23.1882C404.111 7.83752 421.413 -0.0371706 441.809 0.00016273C478.811 0.0668294 509.811 30.0575 509.589 68.1362Z" fill="#A389CC"/>
<path d="M451.233 93.5362C445.247 93.5362 439.259 93.5442 433.271 93.5309C431.117 93.5269 430.328 92.8362 430.345 90.6815C430.421 81.3428 429.919 71.9909 430.607 62.6695C431.049 56.6762 433.42 51.3055 437.124 46.5522C439.631 43.3349 442.252 40.2162 445.179 37.3695C446.125 36.4495 446.603 35.4095 446.581 34.0735C446.556 32.4748 446.712 30.8735 446.673 29.2762C446.627 27.2788 447.283 25.6215 449.157 24.8669C451.111 24.0815 453.021 24.4829 454.605 25.9642C456.148 27.4042 456.748 29.3362 457.225 31.2975C458.451 36.3322 457.501 41.1135 455.429 45.7482C454.736 47.2988 454.104 48.8829 453.328 50.3922C452.82 51.3802 453.213 51.7282 454.093 51.8655C454.548 51.9375 455.02 51.9055 455.484 51.9042C460.852 51.8949 466.22 51.8775 471.588 51.8709C474.507 51.8669 476.505 53.2642 477.199 55.7709C477.975 58.5775 476.853 61.7949 474.493 63.0562C473.432 63.6215 473.464 63.8628 474.391 64.5135C476.351 65.8895 477.66 67.6362 477.259 70.2428C476.956 72.2095 475.981 73.5695 474.044 74.1882C473.677 74.3055 473.115 74.2722 473.043 74.7535C472.969 75.2535 473.555 75.3349 473.861 75.5629C476.439 77.4842 476.783 82.6108 473 84.1762C472.271 84.4775 471.948 84.6562 472.717 85.3949C474.381 86.9909 474.397 89.0295 473.62 90.9868C472.867 92.8855 471.163 93.4669 469.197 93.4602C463.209 93.4402 457.221 93.4535 451.233 93.4535C451.233 93.4802 451.233 93.5082 451.233 93.5362" fill="#FCFCFE"/>
<path d="M423.107 98.8775C418.156 98.8921 413.205 98.9002 408.255 98.9268C406.781 98.9348 406.096 98.1108 405.941 96.7668C405.859 96.0535 405.904 95.3242 405.904 94.6028C405.907 84.2362 405.907 73.8668 405.921 63.5002C405.924 60.9428 406.565 60.3201 409.144 60.3161C413.58 60.3081 418.015 60.3001 422.451 60.3188C424.229 60.3268 425.141 61.1015 425.143 62.7975C425.153 73.6762 425.117 84.5588 425.096 95.4401C425.096 95.4895 425.067 95.5388 425.052 95.5882C424.773 95.6762 424.807 95.7748 425.04 95.8828C425.125 97.0548 425.092 98.1708 423.741 98.6748C423.701 98.3481 423.589 97.9882 423.208 98.1015C422.771 98.2308 423.167 98.6148 423.107 98.8775" fill="#FCFCFE"/>
</svg>
