<svg width="582" height="323" viewBox="0 0 582 323" fill="none" xmlns="http://www.w3.org/2000/svg">
<path d="M514.531 312.055H435.497V276.49H514.531V312.055Z" fill="#ED1161"/>
<path d="M484.676 298.642H451.285V233.135H484.676V298.642Z" fill="#ED1161"/>
<path d="M486.467 298.642H466.647V222.019H486.467V298.642Z" fill="#ED1161"/>
<path d="M441.492 312.055H362.459V269.784H441.492V312.055Z" fill="#ED1161"/>
<path d="M411.637 296.114H378.247V218.255H411.637V296.114Z" fill="#ED1161"/>
<path d="M413.427 296.114H393.608V205.044H413.427V296.114Z" fill="#ED1161"/>
<path d="M312.728 312.055H362.532V202.462H312.728V312.055Z" fill="#FBC30E"/>
<path d="M312.728 302.586H331.344V192.992H312.728V302.586Z" fill="#FBC30E"/>
<path d="M78.3453 312.055H43.6844V241.768H78.3453V312.055" fill="#FBC30E"/>
<path d="M528.968 312.055H493.819V270.36H528.968V312.055" fill="#2B404A"/>
<path d="M511.393 301.787H496.576V251.638H511.393V301.787Z" fill="#2B404A"/>
<path d="M524.487 301.787H509.671V243.128H524.487V301.787Z" fill="#2B404A"/>
<path d="M260.027 312.055H242.536L247.376 107.447H255.188L260.027 312.055" fill="#21B8F1"/>
<path d="M259.167 108.826H243.396C242.441 108.826 241.667 108.052 241.667 107.096V102.644H260.896V107.096C260.896 108.052 260.121 108.826 259.167 108.826Z" fill="#21B8F1"/>
<path d="M260.896 99.9924H241.667V95.5404C241.667 94.5858 242.441 93.8111 243.396 93.8111H259.167C260.121 93.8111 260.896 94.5858 260.896 95.5404V99.9924Z" fill="#21B8F1"/>
<path d="M261.555 104.451H241.008C240.235 104.451 239.607 103.824 239.607 103.05V99.5871C239.607 98.8137 240.235 98.1857 241.008 98.1857H261.555C262.329 98.1857 262.956 98.8137 262.956 99.5871V103.05C262.956 103.824 262.329 104.451 261.555 104.451Z" fill="#21B8F1"/>
<path d="M257.112 95.5404H245.451V80.9351C245.451 80.2324 246.021 79.6617 246.724 79.6617H255.839C256.543 79.6617 257.112 80.2324 257.112 80.9351V95.5404" fill="#21B8F1"/>
<path d="M253.761 44.2365H248.803C248.223 44.2365 247.753 43.7671 247.753 43.1884V41.1698C247.753 40.5898 248.223 40.1204 248.803 40.1204H253.761C254.34 40.1204 254.809 40.5898 254.809 41.1698V43.1884C254.809 43.7671 254.34 44.2365 253.761 44.2365Z" fill="#21B8F1"/>
<path d="M253.572 84.8098H248.991V23.8178H253.572V84.8098" fill="#21B8F1"/>
<path d="M251.281 35.983V0.728379" stroke="#21B8F1" stroke-width="2" stroke-miterlimit="10"/>
<path d="M438.164 312.055H413.273V196.656H438.164V312.055Z" fill="#2B404A"/>
<path d="M433.411 312.055H418.028V190.728H433.411V312.055Z" fill="#2B404A"/>
<path d="M226.564 312.055H213.636V265.111H226.564V312.055" fill="#ED1161"/>
<path d="M222.973 309.119H217.227V262.175H222.973V309.119" fill="#ED1161"/>
<path d="M547.972 312.055H513.629V202.462H547.972V312.055Z" fill="#21B8F1"/>
<path d="M547.972 302.586H535.136V192.992H547.972V302.586Z" fill="#21B8F1"/>
<path d="M541.553 200.179V165.711" stroke="#21B8F1" stroke-width="2" stroke-miterlimit="10"/>
<path d="M176.228 312.055H147.183V232.748H176.228V312.055Z" fill="#21B8F1"/>
<path d="M167.133 305.203H144.108V225.896H167.133V305.203Z" fill="#21B8F1"/>
<path d="M228.135 312.055H199.088V255.723H228.135V312.055Z" fill="#21B8F1"/>
<path d="M219.04 307.19H196.015V250.856H219.04V307.19Z" fill="#21B8F1"/>
<path d="M304.147 312.055H221.849V278.908H304.147V312.055" fill="#2B404A"/>
<path d="M268.813 303.892H228.304V264.024H268.813V303.892Z" fill="#2B404A"/>
<path d="M298.991 303.892H264.297V235.222H298.991V303.892Z" fill="#2B404A"/>
<path d="M151.944 312.055H72.9093V257.591H151.944V312.055" fill="#A3B91F"/>
<path d="M112.427 298.642H98.36V233.135H112.427V298.642Z" fill="#A3B91F"/>
<path d="M141.871 298.642H108.553V222.019H141.871V298.642" fill="#A3B91F"/>
<path d="M500.485 312.055H474.199V201.715H500.485V312.055Z" fill="#A3B91F"/>
<path d="M496.551 208.296H474.199V201.806L496.551 192.062V208.296" fill="#A3B91F"/>
<path d="M571.1 312.055H539.6V235.222H571.1V312.055" fill="#ED1161"/>
<path d="M555.351 307.187H543.684V230.352H555.351V307.187" fill="#ED1161"/>
<path d="M205.609 312.055H172.228V217.831H205.609V312.055" fill="#A3B91F"/>
<path d="M199.283 293.027H178.555V223.642C178.555 211.419 182.205 199.552 188.919 189.947C195.632 199.552 199.283 211.419 199.283 223.642V241.488V293.027Z" fill="#A3B91F"/>
<path d="M34.4005 312.055H16.2281V225.896H34.4005V312.055" fill="#ED1161"/>
<path d="M39.6251 312.055H21.4527V241.347H39.6251V312.055" fill="#ED1161"/>
<path d="M53.0281 312.055H31.6745V250.856H53.0281V312.055Z" fill="#ED1161"/>
<path d="M99.528 312.055H32.9584V286.474H99.528V312.055" fill="#21B8F1"/>
<path d="M66.2427 305.755H38.1797V274.987H66.2427V305.755Z" fill="#21B8F1"/>
<path d="M91.0427 305.755H62.9797V269.766H91.0427V305.755" fill="#21B8F1"/>
<path d="M462.584 312.055H428.248V260.766H462.584V312.055" fill="#FBC30E"/>
<path d="M456.044 308.848H434.788V251.343H456.044V308.848Z" fill="#FBC30E"/>
<path d="M581.728 312.055H560.472V276.912H581.728V312.055Z" fill="#FBC30E"/>
<path d="M22.1953 312.055H0.939056V285.655H22.1953V312.055" fill="#2B404A"/>
<path d="M238.863 312.055H210.54V181.015H238.863V312.055Z" fill="#FBC30E"/>
<path d="M213.609 302.722H210.54V171.682H213.609V302.722" fill="#FBC30E"/>
<path d="M238.863 302.722H235.793V171.682H238.863V302.722" fill="#FBC30E"/>
<path d="M146.88 312.055H116.409V174.202H146.88V312.055" fill="#2B404A"/>
<path d="M140.108 291.854H123.18V159.942H140.108V291.854Z" fill="#2B404A"/>
<path d="M137.061 248.91H126.227V152.972H137.061V248.91Z" fill="#2B404A"/>
<path d="M134.353 237.915H128.936V141.98H134.353V237.915Z" fill="#2B404A"/>
<path d="M131.644 150.722V123.832" stroke="#2B404A" stroke-width="2" stroke-miterlimit="10"/>
<path d="M167.941 312.055H128.108V259.254H167.941V312.055Z" fill="#ED1161"/>
<path d="M160.355 308.752H135.695V249.554H160.355V308.752Z" fill="#ED1161"/>
<path d="M306.147 312.055H279.48V164.055C279.48 156.692 285.449 150.722 292.813 150.722C300.177 150.722 306.147 156.692 306.147 164.055V312.055" fill="#A3B91F"/>
<path d="M296.147 183.388H289.48V135.388H296.147V183.388Z" fill="#A3B91F"/>
<path d="M292.813 146.055V111.388" stroke="#A3B91F" stroke-width="2" stroke-miterlimit="10"/>
<path d="M217.227 312.055H190.921V275.167H217.227V312.055Z" fill="#ED1161"/>
<path d="M220.1 282.276H188.049V275.167H220.1V282.276Z" fill="#ED1161"/>
<path d="M362.459 285.759C351.539 271.914 333.347 262.838 312.728 262.838C292.109 262.838 273.917 271.914 262.999 285.759V312.055H362.459V285.759" fill="#ED1161"/>
<path d="M385.456 312.055H345.361V181.015H385.456V312.055Z" fill="#21B8F1"/>
<path d="M349.705 302.722H345.361V171.682H349.705V302.722" fill="#21B8F1"/>
<path d="M385.456 302.722H381.111V171.682H385.456V302.722" fill="#21B8F1"/>
<path d="M347.532 176.722H383.299" stroke="#21B8F1" stroke-width="2.66667" stroke-miterlimit="10"/>
<path d="M365.408 182.348V131.388" stroke="#21B8F1" stroke-width="2" stroke-miterlimit="10"/>
<path d="M406.84 312.055H368.813V276.694H406.84V312.055" fill="#FBC30E"/>
<path d="M406.84 309H378.413V265.55H406.84V309Z" fill="#FBC30E"/>
<path d="M48.1797 321.043H534.487" stroke="#2B404A" stroke-width="2" stroke-miterlimit="10"/>
</svg>
