<svg width="401" height="401" viewBox="0 0 401 401" fill="none" xmlns="http://www.w3.org/2000/svg">
<path fill-rule="evenodd" clip-rule="evenodd" d="M400.268 199.889C400.268 310.425 310.668 400.024 200.133 400.024C89.6 400.024 0 310.425 0 199.889C0 89.3546 89.6 -6.10352e-05 200.133 -6.10352e-05C310.668 -6.10352e-05 400.268 89.3546 400.268 199.889Z" fill="#FABB1E"/>
<path fill-rule="evenodd" clip-rule="evenodd" d="M348.409 262.949H318.945L325.281 238.119H342.079L348.409 262.949Z" fill="#F2564E"/>
<path fill-rule="evenodd" clip-rule="evenodd" d="M330.884 246.394H336.722V172.379H330.884V246.394Z" fill="#F2564E"/>
<path fill-rule="evenodd" clip-rule="evenodd" d="M345.487 238.119C345.487 231.542 340.379 226.187 333.803 226.187C327.221 226.187 322.119 231.542 322.119 238.119C322.119 244.446 327.221 249.8 333.803 249.8C340.379 249.8 345.487 244.446 345.487 238.119Z" fill="#30445B"/>
<path fill-rule="evenodd" clip-rule="evenodd" d="M31.4106 170.432L200.133 106.152L369.105 170.432L283.157 203.299V177.491C283.157 158.501 240.065 149.735 200.133 149.735C160.205 149.735 117.109 158.501 117.109 177.491V203.299L31.4106 170.432Z" fill="#30445B"/>
<path fill-rule="evenodd" clip-rule="evenodd" d="M180.656 209.385C186.748 208.897 193.324 208.656 200.133 208.656C207.193 208.656 213.769 208.897 219.612 209.385C242.745 210.601 270.256 214.497 285.352 222.777V177.245C285.352 157.771 241.284 148.763 200.133 148.763C159.232 148.763 115.164 157.771 115.164 177.245V222.777C130.261 214.497 157.532 210.601 180.656 209.385Z" fill="#29364A"/>
<path fill-rule="evenodd" clip-rule="evenodd" d="M282.67 241.036C282.179 239.821 281.207 239.092 279.995 239.333C227.16 242.74 173.352 242.74 120.516 239.333C119.299 239.092 118.083 239.821 117.843 241.036C115.892 246.88 114.919 252.968 114.919 258.567C114.919 260.028 116.136 261.247 117.599 261.247H282.914C284.38 261.247 285.598 260.028 285.598 258.567C285.598 253.455 285.352 247.613 282.67 241.036" fill="white"/>
<path fill-rule="evenodd" clip-rule="evenodd" d="M288.272 258.325C288.272 256.864 287.055 255.644 285.597 255.644H214.013C212.557 255.644 211.34 256.864 211.34 258.567H189.177C189.177 256.864 187.96 255.644 186.504 255.644H114.919C113.461 255.644 112.245 256.864 112.245 258.325C112.001 258.809 111.023 273.662 117.843 287.296C118.327 288.27 119.299 288.76 120.283 288.76C120.516 288.76 120.516 288.76 120.516 288.76C141.951 287.296 163.613 286.567 184.801 286.323L197.453 286.079L215.72 286.323C236.897 286.567 258.571 287.296 279.995 288.76C281.207 289.003 282.424 288.024 282.669 286.808C289.489 273.173 288.272 258.809 288.272 258.325" fill="#E9ECF1"/>
<path fill-rule="evenodd" clip-rule="evenodd" d="M199.89 272.445L205.982 275.125L192.83 305.071L188.694 297.768L180.656 299.714L193.807 269.767L199.89 272.445" fill="#F03E38"/>
<path fill-rule="evenodd" clip-rule="evenodd" d="M203.547 276.099L197.704 279.507L213.769 307.748L217.176 300.443L225.215 301.417L209.144 272.932L203.547 276.099" fill="#F03E38"/>
<path fill-rule="evenodd" clip-rule="evenodd" d="M223.998 264.653C225.215 263.193 225.215 260.757 223.752 259.541C222.78 258.567 222.295 257.107 222.78 255.644C223.512 253.941 222.535 251.992 220.834 251.261C219.367 250.773 218.395 249.559 218.395 248.099C218.15 246.148 216.448 244.689 214.503 244.689C213.04 244.689 211.824 243.961 211.09 242.74C210.356 240.795 208.167 240.061 206.464 241.036C205.247 241.524 203.547 241.28 202.573 240.549C201.107 239.092 198.916 239.333 197.704 240.795C196.727 241.765 195.264 242.253 193.807 241.524C191.856 241.036 189.911 242.009 189.422 243.716C188.934 245.176 187.476 246.148 186.259 246.148C184.314 246.148 182.601 247.856 182.845 249.8C182.845 251.504 182.119 252.725 180.656 253.211C178.955 254.185 178.227 256.129 178.955 257.837C179.683 259.297 179.439 260.757 178.465 261.733C177.248 263.193 177.248 265.631 178.711 266.847C179.683 267.819 180.168 269.279 179.683 270.743C178.955 272.445 179.928 274.392 181.873 275.125C183.085 275.611 184.059 276.827 184.314 278.287C184.314 280.236 186.014 281.697 187.96 281.697C189.422 281.697 190.639 282.425 191.368 283.647C192.096 285.592 194.296 286.323 195.999 285.349C197.453 284.863 198.916 285.105 199.89 285.837C201.351 287.296 203.547 287.052 204.764 285.592C205.736 284.62 207.194 284.135 208.655 284.863C210.602 285.349 212.558 284.376 213.286 282.669C213.53 281.209 214.992 280.236 216.204 280.236C218.395 280.236 219.85 278.531 219.85 276.583C219.612 274.881 220.584 273.661 221.807 273.173C223.752 272.2 224.24 270.252 223.512 268.548C222.78 267.333 223.024 265.631 223.998 264.653" fill="#F2564E"/>
<path fill-rule="evenodd" clip-rule="evenodd" d="M217.66 262.464C217.176 253.211 209.384 246.148 200.373 246.635C191.123 247.122 184.059 254.915 184.559 263.923C185.041 273.173 192.829 280.236 202.079 279.751C211.089 279.26 218.149 271.471 217.66 262.464Z" fill="white"/>
<path fill-rule="evenodd" clip-rule="evenodd" d="M215.72 262.464C215.231 254.428 208.411 248.343 200.374 248.585C192.342 249.071 186.259 255.887 186.504 263.923C186.992 271.959 193.807 278.044 201.835 277.8C209.872 277.313 216.204 270.499 215.72 262.464" fill="#F2564E"/>
</svg>
