<svg width="401" height="401" viewBox="0 0 401 401" fill="none" xmlns="http://www.w3.org/2000/svg">
<circle cx="200.135" cy="200.135" r="200.135" fill="#E3EDFE"/>
<path d="M369 302C369 302 363.82 299.985 354.857 296.218C350.424 294.143 344.811 292.518 338.557 290.186C332.349 287.762 325.073 285.827 317.247 283.452C315.295 282.871 313.297 282.269 311.261 281.67C309.193 281.187 307.089 280.697 304.95 280.2C300.687 279.168 296.279 278.104 291.751 277.004C287.213 275.979 282.481 275.292 277.696 274.383C272.894 273.559 268.028 272.484 262.989 271.987C257.982 271.339 252.891 270.666 247.736 269.993C242.574 269.443 237.321 269.189 232.046 268.714C229.411 268.506 226.764 268.294 224.104 268.08C221.448 267.949 218.773 267.953 216.095 267.861C210.747 267.717 205.373 267.572 200 267.435C194.609 267.579 189.215 267.72 183.845 267.868C181.139 267.956 178.415 267.97 175.748 268.097C173.109 268.309 170.481 268.52 167.866 268.735C162.62 269.204 157.415 269.464 152.264 270.007C147.113 270.68 142.025 271.353 137.015 272.008C131.976 272.494 127.11 273.58 122.315 274.411C117.523 275.313 112.794 276 108.252 277.026C103.725 278.121 99.317 279.189 95.0536 280.218C92.9148 280.718 90.8148 281.208 88.7465 281.684C86.71 282.29 84.7122 282.885 82.7602 283.474C74.9345 285.841 67.6621 287.776 61.4255 290.203C55.1537 292.539 49.5268 294.181 45.1295 296.232C36.2042 299.978 31 302 31 302C31 302 35.7415 298.942 44.2215 293.801C48.4028 291.07 53.7761 288.526 59.8893 285.429C61.429 284.665 63.0076 283.872 64.6425 283.054C65.4564 282.646 66.2879 282.237 67.123 281.81C67.9757 281.448 68.846 281.081 69.7233 280.708C73.2679 279.263 76.9817 277.741 80.8645 276.152C82.8095 275.363 84.7967 274.556 86.8192 273.735C88.8769 273.034 90.9734 272.329 93.1015 271.61C97.3861 270.225 101.819 268.802 106.374 267.336C110.955 265.962 115.722 264.908 120.574 263.633C125.426 262.389 130.397 261.135 135.514 260.346C140.623 259.458 145.82 258.556 151.08 257.647C156.369 256.868 161.785 256.434 167.225 255.857C169.945 255.578 172.679 255.3 175.417 255.032C178.137 254.821 180.832 254.8 183.542 254.687C189.014 254.507 194.507 254.324 200 254.137C205.511 254.327 211.025 254.511 216.518 254.694C219.259 254.8 222.004 254.838 224.731 255.05C227.448 255.325 230.168 255.596 232.867 255.871C238.269 256.449 243.645 256.889 248.924 257.661C254.181 258.57 259.378 259.475 264.487 260.363C269.603 261.149 274.567 262.414 279.426 263.654C284.275 264.93 289.045 265.976 293.626 267.35C298.175 268.819 302.607 270.246 306.895 271.631C309.027 272.346 311.123 273.055 313.181 273.749C315.204 274.573 317.191 275.38 319.136 276.166C323.015 277.755 326.732 279.277 330.266 280.729C331.151 281.099 332.021 281.465 332.877 281.828C333.712 282.251 334.548 282.663 335.365 283.072C337.003 283.889 338.589 284.686 340.129 285.457C346.263 288.554 351.65 291.109 355.794 293.819C364.229 298.935 369 302 369 302" fill="#79A2E8"/>
<path d="M216.743 228.109H231.415V213.438H216.743V228.109ZM216.743 205.031H231.415V190.359H216.743V205.031ZM192.364 205.031H207.036V190.359H192.364V205.031ZM167.985 205.031H182.657V190.359H167.985V205.031ZM199.996 111.451V136.115L96.3497 211.281L199.996 111.451ZM364.232 260.902L301.525 199.132V135.777L271.322 105.574V169.377L211.448 110.39L199.7 98.8226L187.956 110.39L35.1675 260.902L199.7 146.886L364.232 260.902ZM192.364 228.109H207.036V213.438H192.364V228.109ZM167.985 228.109H182.657V213.438H167.985V228.109Z" fill="#79A2E8"/>
</svg>
