<svg width="401" height="401" viewBox="0 0 401 401" fill="none" xmlns="http://www.w3.org/2000/svg">
<circle cx="200.135" cy="200.135" r="200.135" fill="#DAFBE3"/>
<path d="M263.589 196.922C263.006 196.318 262.342 195.79 261.62 195.352L360.114 194.059L263.589 196.922ZM256.684 211.171C252.482 211.171 249.076 207.765 249.076 203.56C249.076 199.358 252.482 195.952 256.684 195.952C260.887 195.952 264.293 199.358 264.293 203.56C264.293 207.765 260.887 211.171 256.684 211.171V211.171ZM143.349 211.171C139.146 211.171 135.738 207.765 135.738 203.56C135.738 203.053 135.792 202.557 135.888 202.075C135.92 201.959 135.954 201.844 135.986 201.73C136.092 201.307 136.219 200.892 136.39 200.502C136.389 200.513 136.389 200.52 136.385 200.535C136.39 200.513 136.399 200.495 136.404 200.475C137.59 197.813 140.246 195.952 143.349 195.952C147.551 195.952 150.957 199.358 150.957 203.56C150.957 207.765 147.551 211.171 143.349 211.171ZM138.46 195.325C137.745 195.753 137.084 196.264 136.503 196.858L42.1437 194.059L138.46 195.325ZM176.987 198.059L150.573 197.276C149.96 196.57 149.244 195.959 148.451 195.457L179.309 195.861L176.987 198.059ZM183.247 175.532C183.247 172.041 185.682 168.936 189.476 166.9V172.047C187.35 173.043 185.581 174.341 184.256 175.834C183.944 176.107 183.642 176.381 183.361 176.668C183.301 176.292 183.247 175.916 183.247 175.532V175.532ZM191.236 166.09C193.565 165.135 196.253 164.526 199.159 164.427V169.837C196.291 169.925 193.609 170.464 191.236 171.331V166.09ZM208.603 171.249C206.271 170.423 203.641 169.918 200.84 169.836V164.427C203.67 164.518 206.313 165.077 208.603 165.983V171.249ZM210.284 166.753C214.238 168.786 216.793 171.955 216.793 175.532C216.793 175.936 216.737 176.331 216.672 176.725C216.436 176.482 216.187 176.248 215.929 176.017C214.532 174.38 212.619 172.965 210.284 171.914V166.753ZM249.399 197.343L222.99 198.128L219.778 195.905L251.533 195.486C250.733 195.998 250.012 196.624 249.399 197.343ZM367.878 191.992L218.351 194.029L219.704 185.229C219.71 185.189 219.717 185.152 219.722 185.111L219.73 185.052H219.727C219.783 184.648 219.82 184.239 219.82 183.824C219.82 181.645 219.01 179.593 217.596 177.783C217.596 177.72 217.605 177.66 217.605 177.597C217.605 168.812 211.155 161.552 202.735 160.243L201.445 131.26H198.593L197.303 160.243C188.884 161.552 182.433 168.812 182.433 177.597C182.433 177.634 182.438 177.67 182.44 177.707C180.99 179.536 180.159 181.613 180.159 183.824C180.159 184.569 180.275 185.295 180.454 186.006L181.631 193.661L181.252 194.022L32.1553 191.992L38.2006 196.579L80.9284 201.511L81.2485 207.835H84.0614L84.9322 201.972L116.356 205.6L116.895 212.526H119.501L120.328 206.058L134.255 207.667C134.342 212.225 135.631 218.476 143.349 218.466C149.458 218.459 151.592 213.95 152.261 209.744L180.211 212.971C180.494 213.323 180.774 213.68 181.106 213.985C186.213 218.674 195.489 223 197.156 223H199.989H200.043H202.877C204.544 223 213.82 218.674 218.927 213.985C219.259 213.68 219.538 213.323 219.823 212.971L247.772 209.744C248.441 213.95 250.575 218.459 256.684 218.466C264.402 218.476 265.691 212.225 265.778 207.667L279.705 206.058L280.532 212.526H283.138L283.677 205.6L315.102 201.972L315.971 207.835H318.786L319.104 201.511L361.832 196.579L367.878 191.992Z" fill="#27CC53"/>
<path d="M32.1555 191.992L31 173.368L37.4563 175.755L47.4228 192.878L32.1555 191.992Z" fill="#27CC53"/>
<path d="M367.844 191.992L369 173.368L362.544 175.755L352.577 192.878L367.844 191.992Z" fill="#27CC53"/>
</svg>
